<svg xmlns="http://www.w3.org/2000/svg" viewBox="0 0 100 100">
  <defs>
    <linearGradient id="grad" x1="0%" y1="0%" x2="100%" y2="100%">
      <stop offset="0%" style="stop-color:#10b981;stop-opacity:1" />
      <stop offset="100%" style="stop-color:#059669;stop-opacity:1" />
    </linearGradient>
  </defs>
  
  <!-- Background circle -->
  <circle cx="50" cy="50" r="48" fill="url(#grad)" />
  
  <!-- Leaf design -->
  <path d="M 50 25 Q 35 40, 35 55 Q 35 65, 45 70 Q 50 73, 50 75 Q 50 73, 55 70 Q 65 65, 65 55 Q 65 40, 50 25 Z" 
        fill="#ffffff" opacity="0.95"/>
  
  <!-- Leaf vein -->
  <path d="M 50 30 L 50 72" stroke="#10b981" stroke-width="1.5" fill="none" opacity="0.6"/>
  
  <!-- Side veins -->
  <path d="M 50 40 Q 45 45, 42 50" stroke="#10b981" stroke-width="1" fill="none" opacity="0.5"/>
  <path d="M 50 40 Q 55 45, 58 50" stroke="#10b981" stroke-width="1" fill="none" opacity="0.5"/>
  <path d="M 50 50 Q 45 55, 43 60" stroke="#10b981" stroke-width="1" fill="none" opacity="0.5"/>
  <path d="M 50 50 Q 55 55, 57 60" stroke="#10b981" stroke-width="1" fill="none" opacity="0.5"/>
  
  <!-- Small decorative circle -->
  <circle cx="50" cy="50" r="3" fill="#ffffff" opacity="0.8"/>
</svg>
